<svg id="Capa_1" enable-background="new 0 0 512 512" height="512" viewBox="0 0 512 512" width="512" xmlns="http://www.w3.org/2000/svg"><g><g><path d="m346.814 269.679c1.388-5.438 2.126-11.136 2.126-17.007 0-37.878-30.706-68.584-68.584-68.584-13.367 0-25.84 3.824-36.387 10.438-7.216-8.553-18.014-13.986-30.08-13.986-21.726 0-39.338 17.612-39.338 39.338 0 7.444 2.068 14.405 5.661 20.341-24.307 6.746-42.148 29.034-42.148 55.489 0 26.305 17.639 48.49 41.734 55.373-3.083-16.594-.755-31.79-.755-31.79s40.242-6.164 61.261 14.854c5.887 5.888 9.642 13.283 11.997 20.88l7.331.225c2.35-7.676 6.121-15.16 12.066-21.105 21.019-21.019 61.261-14.854 61.261-14.854s2.939 19.184-2.16 37.979c24.058-1.39 43.139-21.339 43.139-45.745-.002-18.647-11.139-34.691-27.124-41.846z" fill="#e2c4ff"/></g><g fill="#020288"><path d="m461.201 27.242h-147.65c-5.523 0-10 4.477-10 10v4.17c0 26.68-21.331 48.386-47.551 48.386s-47.551-21.706-47.551-48.386v-4.17c0-5.523-4.477-10-10-10h-147.65c-28.01 0-50.799 23.054-50.799 51.391v162.729c0 5.523 4.477 10 10 10h62.32v223.395c0 5.523 4.477 10 10 10h347.36c5.523 0 10-4.477 10-10v-223.395h62.32c5.523 0 10-4.477 10-10v-162.729c0-28.337-22.789-51.391-50.799-51.391zm30.799 204.12h-52.32v-60.666c0-5.523-4.477-10-10-10s-10 4.477-10 10v294.061h-327.36v-294.061c0-5.523-4.477-10-10-10s-10 4.477-10 10v60.666h-52.32v-152.729c0-17.309 13.816-31.391 30.799-31.391h137.893c2.931 34.99 31.999 62.557 67.308 62.557s64.376-27.566 67.308-62.557h137.893c16.983 0 30.799 14.082 30.799 31.391z"/><path d="m334.472 309.405c-1.847-.283-45.527-6.652-69.847 17.667-3.462 3.462-6.301 7.316-8.625 11.386-2.324-4.07-5.164-7.924-8.626-11.386-24.32-24.32-67.998-17.949-69.847-17.667-4.319.662-7.709 4.051-8.371 8.371-.283 1.848-6.651 45.527 17.668 69.846 15.74 15.74 39.589 18.626 54.959 18.626 7.076 0 12.354-.612 14.216-.862 1.862.25 7.139.862 14.216.862 15.369 0 39.22-2.887 54.958-18.626v.001c24.319-24.319 17.951-67.999 17.668-69.846-.66-4.32-4.049-7.71-8.369-8.372zm-88.562 76.723c-11.452.441-32.862-.568-44.942-12.648-12.182-12.182-13.151-33.518-12.677-44.94 11.43-.474 32.762.496 44.941 12.676 12.172 12.172 13.149 33.483 12.678 44.912zm65.122-12.649c-12.182 12.183-33.517 13.153-44.94 12.677-.474-11.431.497-32.762 12.676-44.941 12.172-12.172 33.485-13.145 44.913-12.678.441 11.452-.568 32.862-12.649 44.942z"/></g></g></svg>