<svg id="Capa_1" enable-background="new 0 0 512 512" height="512" viewBox="0 0 512 512" width="512" xmlns="http://www.w3.org/2000/svg"><g><g><g><path d="m413.612 16.058c-21.478 0-38.329 23.97-38.329 23.97s-15.896-23.97-38.339-23.97c-21.83 0-39.656 18.021-40.823 39.841-.657 12.327 3.313 21.708 8.907 30.205 11.178 16.975 70.327 56.064 70.327 56.064s58.926-38.939 70.178-56.064c5.605-8.535 9.565-17.878 8.905-30.205-1.168-21.819-18.994-39.841-40.826-39.841z" fill="#b2f0fb"/></g><g><g><path d="m132.42 97.45c-15.324 0-27.347 17.102-27.347 17.102s-11.341-17.102-27.353-17.102c-15.575 0-28.293 12.858-29.126 28.425-.469 8.795 2.364 15.488 6.355 21.55 7.975 12.111 50.176 39.999 50.176 39.999s42.042-27.782 50.07-39.999c3.999-6.09 6.824-12.755 6.353-21.55-.834-15.568-13.552-28.425-29.128-28.425z" fill="#b2f0fb"/></g></g><g><path d="m227.396 186.195c-2.71-4.782-4.257-10.312-4.257-16.202 0-18.165 14.713-32.891 32.861-32.891s32.861 14.726 32.861 32.891c0 5.891-1.547 11.42-4.257 16.202" fill="#b2f0fb"/></g></g><path d="m475.125 423.101h-1.668v-29.454c0-58.085-22.619-112.693-63.691-153.765-41.073-41.072-95.681-63.692-153.766-63.692s-112.693 22.62-153.766 63.691c-41.072 41.072-63.691 95.68-63.691 153.765v29.454h-1.668c-20.333.001-36.875 16.554-36.875 36.9v25.941c0 5.523 4.477 10 10 10h492c5.522 0 10-4.477 10-10v-25.941c0-20.346-16.542-36.899-36.875-36.899zm-416.582-29.454c0-108.878 88.579-197.457 197.457-197.457s197.457 88.579 197.457 197.457v29.454h-394.914zm433.457 82.295h-472v-15.942c0-9.319 7.57-16.9 16.875-16.9h438.25c9.305 0 16.875 7.581 16.875 16.9z" fill="#020288"/></g></svg>