<svg id="Capa_1" enable-background="new 0 0 512 512" height="512" viewBox="0 0 512 512" width="512" xmlns="http://www.w3.org/2000/svg"><g><g><g><path d="m336.569 233.585c-28.25 0-50.415 31.499-50.415 31.499s-20.908-31.499-50.428-31.499c-28.713 0-52.16 23.682-53.695 52.356-.864 16.199 4.358 28.527 11.715 39.693 14.702 22.308 92.502 73.675 92.502 73.675s77.507-51.171 92.307-73.675c7.373-11.217 12.581-23.494 11.712-39.693-1.534-28.674-24.982-52.356-53.698-52.356z" fill="#ffbdbc"/></g></g><g><path d="m429.648 94.963h-52.826v-5.503c0-49.328-40.372-89.46-89.996-89.46-11.399 0-22.309 2.118-32.354 5.978-10.044-3.86-20.955-5.978-32.354-5.978-49.624 0-89.996 40.132-89.996 89.46v5.503h-49.77c-5.523 0-10 4.478-10 10v397.037c0 5.522 4.477 10 10 10h347.297c5.523 0 10-4.478 10-10v-397.037c-.001-5.523-4.478-10-10.001-10zm-142.821-74.963c38.596 0 69.996 31.159 69.996 69.46v5.503h-44.708v-5.503c0-27.776-12.801-52.636-32.846-69.058 2.482-.266 5.005-.402 7.558-.402zm-32.354 7.876c22.353 11.611 37.641 34.859 37.641 61.584v5.503h-75.283v-5.503c0-26.725 15.289-49.973 37.642-61.584zm-102.35 61.584c0-38.301 31.4-69.46 69.996-69.46 2.553 0 5.076.136 7.559.402-20.045 16.421-32.846 41.281-32.846 69.058v5.503h-44.709zm-59.771 25.503h29.771v377.037h-29.771zm327.296 377.037h-277.525v-377.037h54.709v44.59h-1.062c-5.523 0-10 4.478-10 10s4.477 10 10 10h22.124c5.523 0 10-4.478 10-10s-4.477-10-10-10h-1.062v-44.59h139.991v44.59h-1.062c-5.523 0-10 4.478-10 10s4.477 10 10 10h22.124c5.523 0 10-4.478 10-10s-4.477-10-10-10h-1.062v-44.59h42.826v377.037z" fill="#020288"/></g></g></svg>