<?xml version="1.0" standalone="no"?>
<svg viewBox="0 0 200 200" xmlns="http://www.w3.org/2000/svg">
  <path fill="#F2F4F8" d="M45,-73.7C59,-69.9,71.4,-59.2,78.4,-45.7C85.4,-32.3,87,-16.1,86.8,-0.1C86.5,15.9,84.4,31.7,73.1,37.6C61.8,43.6,41.2,39.6,27.4,42.3C13.7,45,6.9,54.4,-2.7,59C-12.2,63.7,-24.4,63.5,-35.9,59.6C-47.5,55.6,-58.3,47.8,-67.6,37.2C-76.9,26.6,-84.7,13.3,-80.4,2.5C-76.1,-8.3,-59.7,-16.6,-50.5,-27.5C-41.4,-38.4,-39.5,-51.7,-32.3,-59.4C-25.1,-67.1,-12.5,-69,1.5,-71.6C15.5,-74.2,31.1,-77.4,45,-73.7Z" transform="translate(100 100)" />
</svg>
