<?xml version="1.0" standalone="no"?>
<svg viewBox="0 0 200 200" xmlns="http://www.w3.org/2000/svg">
  <path fill="#F2F4F8" d="M38.2,-62.8C49.5,-59.6,58.6,-49.3,68.2,-37.7C77.8,-26,87.9,-13,89.5,1C91.2,15,84.5,29.9,72.2,37C60,44.1,42.3,43.4,29.4,42.6C16.4,41.9,8.2,41.1,0.6,40C-6.9,38.9,-13.9,37.5,-27,38.3C-40.1,39.1,-59.3,42.3,-68.3,36.2C-77.2,30.2,-75.8,15.1,-74.5,0.7C-73.2,-13.6,-72,-27.3,-64.4,-35.6C-56.8,-44,-42.9,-47,-31.1,-49.8C-19.3,-52.6,-9.6,-55.2,1.9,-58.5C13.5,-61.8,26.9,-65.9,38.2,-62.8Z" transform="translate(100 100)" />
</svg>
